<svg data-v-423bf9ae="" xmlns="http://www.w3.org/2000/svg" viewBox="0 0 274.50003177779274 60" class="font"><!----><!----><!----><g data-v-423bf9ae="" id="bd0d2393-7b9c-419f-a749-3f95d518b12b" fill="black" transform="matrix(4.285714577655423,0,0,4.285714577655423,-2.6999980517807103,-12.000000374657809)"><path d="M9.44 8.51C9.44 9.59 9.05 10.52 8.29 11.28C7.52 12.05 6.60 12.43 5.52 12.43C4.44 12.43 3.52 12.05 2.76 11.28C1.99 10.52 1.61 9.59 1.61 8.51C1.61 7.44 1.99 6.52 2.76 5.75C3.52 4.99 4.44 4.61 5.52 4.61C6.60 4.61 7.52 4.99 8.29 5.75C9.05 6.52 9.44 7.44 9.44 8.51ZM10.42 8.51C10.42 7.84 10.29 7.21 10.03 6.61C9.77 6.01 9.42 5.49 8.98 5.05C8.54 4.62 8.02 4.27 7.42 4.01C6.82 3.75 6.19 3.63 5.52 3.63C4.84 3.63 4.21 3.75 3.62 4.01C3.03 4.27 2.51 4.62 2.06 5.05C1.62 5.49 1.27 6.01 1.02 6.61C0.76 7.21 0.63 7.84 0.63 8.51C0.63 9.18 0.76 9.82 1.02 10.42C1.27 11.01 1.62 11.53 2.06 11.98C2.51 12.42 3.03 12.77 3.62 13.03C4.21 13.28 4.84 13.41 5.52 13.41C6.19 13.41 6.82 13.28 7.42 13.03C8.02 12.77 8.54 12.42 8.98 11.98C9.42 11.53 9.77 11.01 10.03 10.42C10.29 9.82 10.42 9.18 10.42 8.51ZM19.91 13.27L20.89 13.27L20.89 9.42C20.89 8.73 20.72 8.16 20.38 7.71C20.20 7.49 19.99 7.31 19.73 7.18C19.46 7.04 19.12 6.97 18.69 6.97C18.26 6.97 17.88 7.09 17.56 7.32C17.27 7.53 17.03 7.81 16.84 8.14C16.77 7.99 16.68 7.85 16.58 7.71C16.41 7.49 16.19 7.31 15.93 7.18C15.67 7.04 15.33 6.97 14.90 6.97C14.47 6.97 14.09 7.09 13.77 7.32C13.49 7.52 13.26 7.78 13.08 8.09L13.08 7.11L12.10 7.11L12.10 13.27L13.08 13.27L13.08 10.12C13.13 9.62 13.25 9.20 13.45 8.85C13.60 8.59 13.80 8.37 14.06 8.20C14.31 8.04 14.58 7.95 14.87 7.95C15.16 7.95 15.37 8.00 15.51 8.08C15.91 8.34 16.11 8.78 16.11 9.42L16.11 13.27L17.09 13.27L17.09 9.42C17.09 9.34 17.09 9.26 17.09 9.19C17.13 9.07 17.19 8.95 17.25 8.85C17.40 8.59 17.60 8.37 17.85 8.20C18.10 8.04 18.37 7.95 18.66 7.95C18.95 7.95 19.17 8.00 19.31 8.08C19.71 8.34 19.91 8.78 19.91 9.42ZM27.68 10.22C27.68 10.82 27.47 11.34 27.05 11.79C26.64 12.24 26.12 12.46 25.51 12.46C24.89 12.46 24.38 12.24 23.96 11.79C23.55 11.34 23.34 10.82 23.34 10.22C23.34 9.62 23.55 9.10 23.96 8.65C24.38 8.20 24.89 7.98 25.51 7.98C26.12 7.98 26.64 8.20 27.05 8.65C27.47 9.10 27.68 9.62 27.68 10.22ZM28.66 13.30L28.66 7.14L27.68 7.14L27.68 8.19C27.62 8.12 27.56 8.05 27.50 7.98C26.92 7.33 26.20 7.00 25.35 7.00C24.50 7.00 23.79 7.33 23.21 7.98C22.64 8.61 22.36 9.36 22.36 10.22C22.36 11.08 22.64 11.83 23.21 12.46C23.79 13.11 24.50 13.44 25.35 13.44C26.20 13.44 26.92 13.11 27.50 12.46C27.56 12.39 27.62 12.32 27.68 12.25L27.68 13.30ZM33.92 8.41L33.92 7.14C33.73 7.06 33.52 7.01 33.31 7.01C32.62 7.01 32.11 7.40 31.78 8.16L31.74 8.41L31.74 7.14L30.76 7.14L30.76 13.30L31.74 13.30L31.74 10.22C31.74 9.71 31.85 9.26 32.09 8.86C32.21 8.64 32.36 8.47 32.54 8.32C32.73 8.18 32.94 8.11 33.20 8.11C33.46 8.11 33.70 8.21 33.92 8.41ZM35.90 16.80L40.15 7.14L39.06 7.14L37.30 11.27L35.32 7.14L34.20 7.14L36.78 12.29L34.71 16.80ZM46.38 9.80L48.12 5.42L49.85 9.80ZM52.29 13.30L48.12 3.12L43.93 13.30L45.00 13.30L46.02 10.71L50.20 10.71L51.23 13.30ZM54.46 13.30L54.46 2.80L53.48 2.80L53.48 13.30ZM57.54 13.30L57.54 2.80L56.56 2.80L56.56 13.30ZM60.42 16.80L64.68 7.14L63.59 7.14L61.82 11.27L59.85 7.14L58.73 7.14L61.31 12.29L59.23 16.80Z"></path></g><!----><!----></svg>