<svg data-v-423bf9ae="" xmlns="http://www.w3.org/2000/svg" viewBox="0 0 334.84166356139525 60" class="font"><!----><!----><!----><g data-v-423bf9ae="" id="111ad370-0fa0-4a1c-b335-639e447b1bdb" fill="black" transform="matrix(4.633204360242903,0,0,4.633204360242903,-3.6602304145746416,-7.830116110761743)"><path d="M6.06 1.76L6.06 1.76L6.06 1.76Q8.36 1.76 9.91 3.29L9.91 3.29L9.91 3.29Q11.46 4.83 11.46 7.08L11.46 7.08L11.46 7.08Q11.46 9.30 9.91 10.73L9.91 10.73L9.91 10.73Q8.37 12.16 6.15 12.16L6.15 12.16L6.15 12.16Q3.89 12.16 2.34 10.62L2.34 10.62L2.34 10.62Q0.79 9.08 0.79 7.13L0.79 7.13L0.79 7.13Q0.79 5.67 1.49 4.42L1.49 4.42L1.49 4.42Q2.19 3.17 3.42 2.46L3.42 2.46L3.42 2.46Q4.64 1.76 6.06 1.76ZM6.10 2.75L6.10 2.75L6.10 2.75Q4.98 2.75 3.98 3.34L3.98 3.34L3.98 3.34Q2.97 3.92 2.41 4.92L2.41 4.92L2.41 4.92Q1.85 5.91 1.85 7.13L1.85 7.13L1.85 7.13Q1.85 8.93 3.09 10.06L3.09 10.06L3.09 10.06Q4.34 11.18 6.10 11.18L6.10 11.18L6.10 11.18Q7.28 11.18 8.29 10.60L8.29 10.60L8.29 10.60Q9.29 10.03 9.85 9.04L9.85 9.04L9.85 9.04Q10.41 8.05 10.41 7.08L10.41 7.08L10.41 7.08Q10.41 5.88 9.85 4.90L9.85 4.90L9.85 4.90Q9.29 3.92 8.27 3.34L8.27 3.34L8.27 3.34Q7.25 2.75 6.10 2.75ZM13.31 12.09L13.31 9.18L13.31 7.98L13.31 7.98Q13.43 6.45 13.95 5.74L13.95 5.74L13.95 5.74Q14.38 5.09 15.08 4.71L15.08 4.71L15.08 4.71Q15.54 4.42 16.39 4.40L16.39 4.40L16.39 4.40Q16.93 4.40 17.49 4.60L17.49 4.60L17.49 4.60Q18.05 4.81 18.36 5.15L18.36 5.15L18.36 5.15Q18.67 5.49 18.98 6.17L18.98 6.17L18.98 6.17Q19.15 5.74 19.70 5.15L19.70 5.15L19.70 5.15Q19.97 4.92 20.39 4.70L20.39 4.70L20.39 4.70Q20.68 4.52 21.72 4.40L21.72 4.40L21.72 4.40Q22.50 4.40 23.22 4.79L23.22 4.79L23.22 4.79Q23.94 5.17 24.23 5.88L24.23 5.88L24.23 5.88Q24.52 6.59 24.52 7.99L24.52 7.99L24.52 12.09L23.54 12.09L23.54 7.99L23.54 7.99Q23.54 6.79 23.37 6.34L23.37 6.34L23.37 6.34Q23.19 5.89 22.78 5.61L22.78 5.61L22.78 5.61Q22.36 5.33 21.77 5.33L21.77 5.33L21.77 5.33Q20.67 5.41 19.88 6.41L19.88 6.41L19.88 6.41Q19.57 6.83 19.41 8.29L19.41 8.29L19.41 12.09L18.45 12.09L18.45 8.24L18.45 8.24Q18.45 6.89 18.15 6.40L18.15 6.40L18.15 6.40Q17.85 5.91 17.43 5.62L17.43 5.62L17.43 5.62Q17.01 5.33 16.39 5.33L16.39 5.33L16.39 5.33Q15.72 5.33 15.24 5.67L15.24 5.67L15.24 5.67Q14.76 6.02 14.49 6.70L14.49 6.70L14.49 6.70Q14.21 7.38 14.27 8.91L14.27 8.91L14.27 12.09L13.31 12.09ZM30.08 4.22L30.08 4.22L30.08 4.22Q31.81 4.22 32.96 5.47L32.96 5.47L32.96 5.47Q34.01 6.61 34.01 8.18L34.01 8.18L34.01 8.18Q34.02 12.07 34.01 12.13L34.01 12.13L34.01 12.13Q33.35 12.13 32.99 12.13L32.99 12.13L32.99 12.13Q32.99 12.08 32.99 10.42L32.99 10.42L32.99 10.42Q32.19 11.92 30.08 12.09L30.08 12.09L30.08 12.09Q28.36 12.09 27.27 10.92L27.27 10.92L27.27 10.92Q26.18 9.75 26.18 8.18L26.18 8.18L26.18 8.18Q26.18 6.62 27.21 5.48L27.21 5.48L27.21 5.48Q28.36 4.22 30.08 4.22ZM30.08 5.16L30.08 5.16L30.08 5.16Q28.89 5.16 28.03 6.05L28.03 6.05L28.03 6.05Q27.17 6.94 27.17 8.20L27.17 8.20L27.17 8.20Q27.17 9.01 27.61 9.76L27.61 9.76L27.61 9.76Q28.05 10.51 29.10 11.03L29.10 11.03L29.10 11.03Q31.74 11.62 32.85 8.63L32.85 8.63L32.85 8.63Q32.92 7.68 32.65 6.80L32.65 6.80L32.65 6.80Q32.46 6.41 32.12 6.05L32.12 6.05L32.12 6.05Q31.28 5.16 30.08 5.16ZM35.51 12.07L35.51 8.65L35.51 7.75L35.51 7.75Q35.62 7.08 35.83 6.65L35.83 6.65L35.83 6.65Q36.31 5.48 37.11 4.93L37.11 4.93L37.11 4.93Q37.92 4.38 38.45 4.38L38.45 4.38L38.45 4.38Q38.85 4.38 39.30 4.64L39.30 4.64L38.80 5.45L38.80 5.45Q38.17 5.22 37.54 5.82L37.54 5.82L37.54 5.82Q36.91 6.43 36.67 7.15L36.67 7.15L36.67 7.15Q36.50 7.79 36.50 9.54L36.50 9.54L36.50 12.07L35.51 12.07ZM42.39 11.34L39.31 4.41L40.33 4.41L42.91 10.19L45.41 4.41L46.44 4.41L41.97 14.64L40.95 14.64L42.39 11.34ZM54.72 1.91L54.97 1.91L59.69 12.04L58.61 12.04L57.02 8.70L52.64 8.70L51.06 12.04L49.93 12.04L54.72 1.91ZM56.57 7.73L54.84 4.05L53.09 7.73L56.57 7.73ZM60.96 12.09L60.96 1.69L61.93 1.69L61.93 12.09L60.96 12.09ZM63.77 12.09L63.77 1.69L64.74 1.69L64.74 12.09L63.77 12.09ZM69.01 11.34L65.93 4.41L66.95 4.41L69.53 10.19L72.03 4.41L73.06 4.41L68.58 14.64L67.57 14.64L69.01 11.34Z"></path></g><!----><!----></svg>